<?xml version="1.0" encoding="utf-8"?>
<!-- Generator: Adobe Illustrator 18.0.0, SVG Export Plug-In . SVG Version: 6.00 Build 0)  -->
<!DOCTYPE svg PUBLIC "-//W3C//DTD SVG 1.1//EN" "http://www.w3.org/Graphics/SVG/1.1/DTD/svg11.dtd">
<svg version="1.1" id="Layer_1" xmlns="http://www.w3.org/2000/svg" xmlns:xlink="http://www.w3.org/1999/xlink" x="0px" y="0px"
	 viewBox="0 255.1 419.5 85" enable-background="new 0 255.1 419.5 85" xml:space="preserve">
<g>
	<path fill="#FFFFFF" d="M18.2,278h-6.7v-6.9h6.7V278z M18.2,324.5h-6.7v-37h6.7V324.5z"/>
	<path fill="#FFFFFF" d="M56.9,311.9c0-2.3-0.9-4.2-2.6-5.7s-4.7-2.8-9.1-3.9c-5.3-1.3-9.4-3.1-12.3-5.6c-3-2.4-4.4-5.5-4.4-9.2
		c0-3.9,1.6-7.1,4.8-9.7c3.2-2.6,7.3-3.9,12.4-3.9c5.4,0,9.8,1.5,13,4.5c3.2,3,4.8,6.4,4.7,10.4l-0.1,0.2h-6.4c0-2.9-1-5.3-2.9-7.1
		c-1.9-1.8-4.7-2.7-8.3-2.7c-3.3,0-5.9,0.8-7.7,2.3c-1.8,1.5-2.7,3.5-2.7,5.9c0,2.2,1,4,2.9,5.4c1.9,1.4,5.1,2.7,9.4,3.8
		c5.2,1.3,9.2,3.2,12,5.7s4.1,5.7,4.1,9.4c0,4-1.6,7.2-4.9,9.7c-3.3,2.4-7.6,3.7-12.9,3.7c-5,0-9.4-1.4-13.2-4
		c-3.8-2.7-5.7-6.3-5.6-10.8l0.1-0.2h6.4c0,3.2,1.2,5.6,3.5,7.3c2.3,1.7,5.3,2.5,8.7,2.5c3.4,0,6.1-0.7,8.1-2.1
		S56.9,314.4,56.9,311.9z"/>
	<path fill="#FFFFFF" d="M78.9,292.4c1.3-1.8,2.8-3.2,4.7-4.2c1.9-1,3.9-1.5,6.2-1.5c3.9,0,7,1.2,9.2,3.6c2.2,2.4,3.3,6,3.3,10.9
		v23.2h-6.7v-23.2c0-3.1-0.7-5.3-2-6.8c-1.3-1.5-3.3-2.2-5.9-2.2c-1.9,0-3.6,0.4-5.1,1.3c-1.5,0.9-2.8,2.1-3.7,3.6v27.3h-6.7v-53.3
		h6.7V292.4z"/>
	<path fill="#FFFFFF" d="M119.2,278h-6.7v-6.9h6.7V278z M119.2,324.5h-6.7v-37h6.7V324.5z"/>
	<path fill="#FFFFFF" d="M161.1,307.4c0,5.3-1.3,9.6-3.8,12.9c-2.6,3.3-6.1,4.9-10.6,4.9c-2.3,0-4.3-0.4-6-1.1
		c-1.7-0.8-3.2-1.9-4.4-3.4v18.1h-6.7v-51.2h5.2l1.1,4.8c1.2-1.8,2.7-3.1,4.5-4.1c1.8-0.9,3.9-1.4,6.3-1.4c4.6,0,8.1,1.8,10.7,5.5
		c2.5,3.6,3.8,8.4,3.8,14.4V307.4z M154.4,306.6c0-4.2-0.8-7.6-2.5-10.3c-1.7-2.7-4.1-4-7.3-4c-1.9,0-3.6,0.4-5,1.3
		s-2.5,2.1-3.3,3.6V315c0.8,1.5,1.9,2.7,3.3,3.6s3,1.3,5,1.3c3.2,0,5.6-1.2,7.2-3.5s2.5-5.3,2.5-9V306.6z"/>
	<path fill="#FFFFFF" d="M200.9,307.4c0,5.3-1.3,9.6-3.8,12.9c-2.6,3.3-6.1,4.9-10.6,4.9c-2.3,0-4.3-0.4-6-1.1
		c-1.7-0.8-3.2-1.9-4.4-3.4v18.1h-6.7v-51.2h5.2l1.1,4.8c1.2-1.8,2.7-3.1,4.5-4.1c1.8-0.9,3.9-1.4,6.3-1.4c4.6,0,8.1,1.8,10.7,5.5
		c2.5,3.6,3.8,8.4,3.8,14.4V307.4z M194.2,306.6c0-4.2-0.8-7.6-2.5-10.3c-1.7-2.7-4.1-4-7.3-4c-1.9,0-3.6,0.4-5,1.3
		s-2.5,2.1-3.3,3.6V315c0.8,1.5,1.9,2.7,3.3,3.6s3,1.3,5,1.3c3.2,0,5.6-1.2,7.2-3.5s2.5-5.3,2.5-9V306.6z"/>
	<path fill="#FFFFFF" d="M207.6,305.6c0-5.5,1.5-10,4.4-13.5c3-3.5,7-5.3,12.1-5.3c5.1,0,9.2,1.8,12.2,5.3c3,3.5,4.5,8,4.5,13.5v0.8
		c0,5.5-1.5,10-4.4,13.5c-3,3.5-7,5.3-12.1,5.3c-5.1,0-9.1-1.8-12.1-5.3c-3-3.5-4.5-8-4.5-13.5V305.6z M214.3,306.4
		c0,3.9,0.8,7.1,2.5,9.7c1.7,2.5,4.1,3.8,7.4,3.8c3.2,0,5.7-1.3,7.3-3.8c1.7-2.5,2.5-5.8,2.5-9.7v-0.8c0-3.9-0.8-7.1-2.5-9.7
		c-1.7-2.6-4.1-3.9-7.4-3.9c-3.2,0-5.6,1.3-7.3,3.9c-1.7,2.6-2.5,5.8-2.5,9.7V306.4z"/>
	<path fill="#FFFFFF" d="M294.6,311.6h-20.8l-4.7,12.8h-6.9l19.2-49.8h5.8l18.9,49.8h-6.9L294.6,311.6z M275.8,306h16.7l-8.2-22.7
		h-0.2L275.8,306z"/>
	<path fill="#FFFFFF" d="M320,324.5h-6.8v-49.8h6.8V324.5z"/>
</g>
</svg>
