<?xml version="1.0" encoding="utf-8"?>
<!-- Generator: Adobe Illustrator 18.0.0, SVG Export Plug-In . SVG Version: 6.00 Build 0)  -->
<!DOCTYPE svg PUBLIC "-//W3C//DTD SVG 1.1//EN" "http://www.w3.org/Graphics/SVG/1.1/DTD/svg11.dtd">
<svg version="1.1" id="Layer_1" xmlns="http://www.w3.org/2000/svg" xmlns:xlink="http://www.w3.org/1999/xlink" x="0px" y="0px"
	 viewBox="0 229.6 419.5 136.1" enable-background="new 0 229.6 419.5 136.1" xml:space="preserve">
<g>
	<path fill="#FFFFFF" d="M9.2,269.3H0v-9.4h9.2V269.3z M9.2,332.9H0v-50.6h9.2V332.9z"/>
	<path fill="#FFFFFF" d="M62,315.6c0-3.1-1.2-5.7-3.6-7.8c-2.3-2-6.4-3.8-12.4-5.3c-7.2-1.8-12.8-4.2-16.8-7.7
		c-4.1-3.3-6-7.5-6-12.6c0-5.3,2.2-9.7,6.6-13.3c4.4-3.6,10-5.3,16.9-5.3c7.4,0,13.4,2,17.8,6.1c4.4,4.1,6.6,8.7,6.4,14.2l-0.1,0.3
		H62c0-4-1.4-7.2-4-9.7c-2.6-2.5-6.4-3.7-11.3-3.7c-4.5,0-8.1,1.1-10.5,3.1c-2.5,2-3.7,4.8-3.7,8.1c0,3,1.4,5.5,4,7.4
		c2.6,1.9,7,3.7,12.8,5.2c7.1,1.8,12.6,4.4,16.4,7.8c3.8,3.4,5.6,7.8,5.6,12.8c0,5.5-2.2,9.8-6.7,13.3c-4.5,3.3-10.4,5.1-17.6,5.1
		c-6.8,0-12.8-1.9-18-5.5c-5.2-3.7-7.8-8.6-7.7-14.8l0.1-0.3h8.7c0,4.4,1.6,7.7,4.8,10c3.1,2.3,7.2,3.4,11.9,3.4s8.3-1,11.1-2.9
		C60.7,321.8,62,319.1,62,315.6z"/>
	<path fill="#FFFFFF" d="M92.1,289c1.8-2.5,3.8-4.4,6.4-5.7c2.6-1.4,5.3-2,8.5-2c5.3,0,9.6,1.6,12.6,4.9c3,3.3,4.5,8.2,4.5,14.9
		v31.7h-9.2V301c0-4.2-1-7.2-2.7-9.3c-1.8-2-4.5-3-8.1-3c-2.6,0-4.9,0.5-7,1.8c-2,1.2-3.8,2.9-5.1,4.9v37.3h-9.2v-72.8h9.2V289z"/>
	<path fill="#FFFFFF" d="M147.2,269.3H138v-9.4h9.2V269.3z M147.2,332.9H138v-50.6h9.2V332.9z"/>
	<path fill="#FFFFFF" d="M204.4,309.5c0,7.2-1.8,13.1-5.2,17.6c-3.6,4.5-8.3,6.7-14.5,6.7c-3.1,0-5.9-0.5-8.2-1.5
		c-2.3-1.1-4.4-2.6-6-4.6v24.7h-9.2v-70h7.1l1.5,6.6c1.6-2.5,3.7-4.2,6.1-5.6c2.5-1.2,5.3-1.9,8.6-1.9c6.3,0,11.1,2.5,14.6,7.5
		c3.4,4.9,5.2,11.5,5.2,19.7v0.8H204.4z M195.3,308.4c0-5.7-1.1-10.4-3.4-14.1c-2.3-3.7-5.6-5.5-10-5.5c-2.6,0-4.9,0.5-6.8,1.8
		s-3.4,2.9-4.5,4.9v24.3c1.1,2,2.6,3.7,4.5,4.9s4.1,1.8,6.8,1.8c4.4,0,7.7-1.6,9.8-4.8c2.2-3.1,3.4-7.2,3.4-12.3v-1.1H195.3z"/>
	<path fill="#FFFFFF" d="M258.8,309.5c0,7.2-1.8,13.1-5.2,17.6c-3.6,4.5-8.3,6.7-14.5,6.7c-3.1,0-5.9-0.5-8.2-1.5
		c-2.3-1.1-4.4-2.6-6-4.6v24.7h-9.2v-70h7.1l1.5,6.6c1.6-2.5,3.7-4.2,6.1-5.6c2.5-1.2,5.3-1.9,8.6-1.9c6.3,0,11.1,2.5,14.6,7.5
		c3.4,4.9,5.2,11.5,5.2,19.7v0.8H258.8z M249.7,308.4c0-5.7-1.1-10.4-3.4-14.1c-2.3-3.7-5.6-5.5-10-5.5c-2.6,0-4.9,0.5-6.8,1.8
		c-1.9,1.2-3.4,2.9-4.5,4.9v24.3c1.1,2,2.6,3.7,4.5,4.9c1.9,1.2,4.1,1.8,6.8,1.8c4.4,0,7.7-1.6,9.8-4.8c2.2-3.1,3.4-7.2,3.4-12.3
		v-1.1H249.7z"/>
	<path fill="#FFFFFF" d="M268,307c0-7.5,2-13.7,6-18.4c4.1-4.8,9.6-7.2,16.5-7.2c7,0,12.6,2.5,16.7,7.2c4.1,4.8,6.1,10.9,6.1,18.4
		v1.1c0,7.5-2,13.7-6,18.4c-4.1,4.8-9.6,7.2-16.5,7.2c-7,0-12.4-2.5-16.5-7.2c-4.1-4.8-6.1-10.9-6.1-18.4V307H268z M277.1,308.1
		c0,5.3,1.1,9.7,3.4,13.3c2.3,3.4,5.6,5.2,10.1,5.2c4.4,0,7.8-1.8,10-5.2c2.3-3.4,3.4-7.9,3.4-13.3V307c0-5.3-1.1-9.7-3.4-13.3
		c-2.3-3.6-5.6-5.3-10.1-5.3c-4.4,0-7.7,1.8-10,5.3c-2.3,3.6-3.4,7.9-3.4,13.3V308.1z"/>
	<path fill="#FFFFFF" d="M386.8,315.2h-28.4l-6.4,17.5h-9.4l26.2-68h7.9l25.8,68h-9.4L386.8,315.2z M361.2,307.6H384l-11.2-31h-0.3
		L361.2,307.6z"/>
	<path fill="#FFFFFF" d="M421.6,332.9h-9.3v-68h9.3V332.9z"/>
</g>
</svg>
