<?xml version="1.0" encoding="utf-8"?>
<!-- Generator: Adobe Illustrator 18.0.0, SVG Export Plug-In . SVG Version: 6.00 Build 0)  -->
<!DOCTYPE svg PUBLIC "-//W3C//DTD SVG 1.1//EN" "http://www.w3.org/Graphics/SVG/1.1/DTD/svg11.dtd">
<svg version="1.1" id="Layer_1" xmlns="http://www.w3.org/2000/svg" xmlns:xlink="http://www.w3.org/1999/xlink" x="0px" y="0px"
	 viewBox="30 115 440 270" enable-background="new 30 115 440 270" xml:space="preserve">
<g>
	<path fill="#FFFFFF" d="M249.8,368.7c-10.1,0-20.1-1.4-29.9-4L67.6,323c-15.1-4.7-22.5-12.3-22.5-23V192c0-10.9,6.8-17.8,22.6-23.1
		l151.4-41.5c10-2.7,20.4-4.1,30.7-4.1c10.4,0,20.7,1.4,30.7,4.1L432,168.9c15.1,4.7,22.5,12.2,22.5,23v108
		c0,15.6-17.3,21.6-22.5,23l-152.3,41.7C269.9,367.4,259.9,368.7,249.8,368.7z"/>
	<path d="M249.8,125.4c10.2,0,20.3,1.4,30.2,4.1l151.4,41.5c14.2,4.4,21.1,11.3,21.1,21v108c0,14.2-16.1,19.7-21,21l-152.3,41.7
		c-9.6,2.6-19.4,4-29.3,4c-9.9,0-19.8-1.3-29.3-4L68.2,321c-18.9-5.9-21.1-14.8-21.1-21V192c0-9.8,6.3-16.1,21.1-21l151.4-41.5
		C229.5,126.7,239.6,125.4,249.8,125.4 M249.8,121.2c-10.5,0-21,1.4-31.3,4.2L67.1,166.9C53.3,171.5,43,178.2,43,192v108
		c0,13.8,11,21,24.1,25l152.3,41.7c10,2.7,20.2,4.1,30.4,4.1s20.5-1.4,30.4-4.1L432.5,325c11.7-3.2,24.1-11.3,24.1-25V192
		c0-13.8-11-21-24.1-25l-151.5-41.5C270.8,122.6,260.3,121.2,249.8,121.2L249.8,121.2z"/>
</g>
<path d="M423.9,318.3l-145.1,38.2c-19,5-39,5-58,0L75.7,318.3c-12.5-3.7-22.9-10.3-22.9-22.9v-98.9c0-12.6,9.8-18.8,22.9-22.9
	l144.3-38c19.5-5.1,40-5.1,59.6,0l144.3,38c12.4,3.7,22.9,10.3,22.9,22.9v98.9C446.8,308,435,315.4,423.9,318.3z"/>
<g>
	<g>
		<path fill="#F3BA0C" d="M140.3,242.2v-56.3h3.9l17.9,43.7v-43.7h4.5v56.3h-3.7L144.8,198v44.2H140.3z"/>
		<path fill="#F3BA0C" d="M183.6,242.2v-56.3h5.2v56.3H183.6z"/>
		<path fill="#F3BA0C" d="M205.7,242.2v-56.3h5.3v29.7l15-29.7h5.1l-11.6,24.2l14.1,32.1h-5.3l-12.8-29.3l-4.5,8.4v20.9H205.7z"/>
		<path fill="#F3BA0C" d="M258.9,242.9c-2.7,0-5-0.4-6.9-1.2c-1.9-0.8-3.4-2-4.5-3.6c-1.1-1.6-1.9-3.4-2.3-5.4c-0.5-2-0.7-4.4-0.7-7
			v-23.4c0-2.6,0.2-5,0.7-7c0.5-2,1.3-3.8,2.4-5.3c1.1-1.5,2.6-2.7,4.5-3.5c1.9-0.8,4.2-1.2,6.9-1.2c2.7,0,5,0.4,6.9,1.2
			c1.9,0.8,3.4,2,4.5,3.5c1.1,1.5,1.9,3.3,2.4,5.3c0.5,2,0.7,4.3,0.7,6.9v23.4c0,2.1-0.1,4-0.4,5.7c-0.3,1.7-0.8,3.3-1.5,4.8
			c-0.7,1.5-1.6,2.7-2.7,3.7c-1.1,1-2.5,1.8-4.1,2.3C263,242.6,261.1,242.9,258.9,242.9z M254.4,237.8c1.2,0.6,2.7,0.8,4.5,0.8
			c1.8,0,3.3-0.3,4.5-0.8c1.2-0.6,2.2-1.4,2.8-2.5c0.6-1.1,1.1-2.3,1.4-3.7c0.3-1.4,0.4-3,0.4-4.9v-25.5c0-1.9-0.1-3.5-0.4-4.9
			c-0.3-1.3-0.7-2.6-1.4-3.6c-0.6-1.1-1.6-1.9-2.8-2.4c-1.2-0.5-2.7-0.8-4.5-0.8c-1.8,0-3.3,0.3-4.5,0.8c-1.2,0.5-2.2,1.3-2.8,2.4
			c-0.6,1.1-1.1,2.3-1.4,3.6c-0.3,1.3-0.4,3-0.4,4.9v25.5c0,1.9,0.1,3.5,0.4,4.9c0.3,1.4,0.7,2.6,1.4,3.7
			C252.2,236.4,253.1,237.2,254.4,237.8z"/>
		<path fill="#F3BA0C" d="M288.2,242.2v-7.6h5.4v7.6H288.2z"/>
		<path fill="#F3BA0C" d="M305.6,242.2l11.9-56.3h5.6l11.9,56.3h-5.2l-2.8-15h-13.4l-2.9,15H305.6z M314.3,223.3h12l-6-30.3
			L314.3,223.3z"/>
		<path fill="#F3BA0C" d="M348.9,242.2v-56.3h5.2v56.3H348.9z"/>
	</g>
	<g>
		<path fill="#FFFFFF" d="M140.3,242.2v-56.3h3.9l17.9,43.7v-43.7h4.5v56.3h-3.7L144.8,198v44.2H140.3z"/>
		<path fill="#FFFFFF" d="M183.6,242.2v-56.3h5.2v56.3H183.6z"/>
		<path fill="#FFFFFF" d="M205.7,242.2v-56.3h5.3v29.7l15-29.7h5.1l-11.6,24.2l14.1,32.1h-5.3l-12.8-29.3l-4.5,8.4v20.9H205.7z"/>
		<path fill="#FFFFFF" d="M258.9,242.9c-2.7,0-5-0.4-6.9-1.2c-1.9-0.8-3.4-2-4.5-3.6c-1.1-1.6-1.9-3.4-2.3-5.4c-0.5-2-0.7-4.4-0.7-7
			v-23.4c0-2.6,0.2-5,0.7-7c0.5-2,1.3-3.8,2.4-5.3c1.1-1.5,2.6-2.7,4.5-3.5c1.9-0.8,4.2-1.2,6.9-1.2c2.7,0,5,0.4,6.9,1.2
			c1.9,0.8,3.4,2,4.5,3.5c1.1,1.5,1.9,3.3,2.4,5.3c0.5,2,0.7,4.3,0.7,6.9v23.4c0,2.1-0.1,4-0.4,5.7c-0.3,1.7-0.8,3.3-1.5,4.8
			c-0.7,1.5-1.6,2.7-2.7,3.7c-1.1,1-2.5,1.8-4.1,2.3C263,242.6,261.1,242.9,258.9,242.9z M254.4,237.8c1.2,0.6,2.7,0.8,4.5,0.8
			c1.8,0,3.3-0.3,4.5-0.8c1.2-0.6,2.2-1.4,2.8-2.5c0.6-1.1,1.1-2.3,1.4-3.7c0.3-1.4,0.4-3,0.4-4.9v-25.5c0-1.9-0.1-3.5-0.4-4.9
			c-0.3-1.3-0.7-2.6-1.4-3.6c-0.6-1.1-1.6-1.9-2.8-2.4c-1.2-0.5-2.7-0.8-4.5-0.8c-1.8,0-3.3,0.3-4.5,0.8c-1.2,0.5-2.2,1.3-2.8,2.4
			c-0.6,1.1-1.1,2.3-1.4,3.6c-0.3,1.3-0.4,3-0.4,4.9v25.5c0,1.9,0.1,3.5,0.4,4.9c0.3,1.4,0.7,2.6,1.4,3.7
			C252.2,236.4,253.1,237.2,254.4,237.8z"/>
		<path fill="#FFFFFF" d="M288.2,242.2v-7.6h5.4v7.6H288.2z"/>
		<path fill="#FFFFFF" d="M305.6,242.2l11.9-56.3h5.6l11.9,56.3h-5.2l-2.8-15h-13.4l-2.9,15H305.6z M314.3,223.3h12l-6-30.3
			L314.3,223.3z"/>
		<path fill="#FFFFFF" d="M348.9,242.2v-56.3h5.2v56.3H348.9z"/>
	</g>
</g>
<g>
	<path fill="#FFFFFF" d="M137.5,280.7v19.7c0,2.9,0.5,3.3,3.2,3.4v0.8c-1.2-0.1-3.2-0.1-5-0.1c-2.1,0-4,0-5.1,0.1v-0.8
		c2.7-0.1,3.2-0.5,3.2-3.4v-21.3l-9.6,25.7h-0.6l-10-25.8v21c0,2.9,0.5,3.7,3.6,3.8v0.8c-1-0.1-2.7-0.1-4.1-0.1
		c-1.4,0-2.8,0-3.7,0.1v-0.8c2.7-0.1,3.2-0.9,3.2-3.8v-19.3c0-2.9-0.5-3.3-3.2-3.4v-0.8c0.9,0.1,2.3,0.1,3.7,0.1
		c1.2,0,2.5,0,3.4-0.1l8.7,23l8.5-22.9h1.9c1.8,0,3.8,0,5-0.1v0.8C138,277.4,137.5,277.8,137.5,280.7z"/>
	<path fill="#FFFFFF" d="M156.9,285.1c1.3,1.3,1.6,2.7,1.6,5.6v11c0,1.3,0.3,1.9,1.2,1.9c0.7,0,1.2-0.4,1.8-0.8l0.4,0.7
		c-1.1,0.8-1.9,1.5-3.6,1.5c-2.8,0-3.4-1.7-3.4-3.5c-1.7,2.8-4.2,3.5-6.1,3.5c-2.7,0-5-1.4-5-4.4c0-3.1,2.4-4.5,6.4-6.2
		c2.7-1.1,4.8-1.8,4.8-3.4v-2.5c0-3.3-1.6-4-3.7-4c-1.4,0-3,0.3-3.9,1.4c1,0.2,1.9,1.1,1.9,2.4c0,1.4-0.9,2.1-2.3,2.1
		c-1.4,0-2.1-1-2.1-2.5c0-1.2,0.8-2.1,1.9-2.8c1.1-0.8,3-1.5,5.6-1.5C154.3,283.6,156,284.2,156.9,285.1z M151.1,294.8
		c-1.7,0.8-3.9,2-3.9,5c0,2.4,1.3,3.5,3.2,3.5c1.6,0,3.1-0.8,4.5-3v-7.8C154.4,293.2,153.6,293.6,151.1,294.8z"/>
	<path fill="#FFFFFF" d="M177.6,284.9c1.2,0.8,1.9,1.9,1.9,3.1c0,1.4-0.9,2.2-2.1,2.2c-1.2,0-2.2-0.7-2.2-2c0-1.2,0.8-1.9,1.7-2.2
		c-0.5-1-2.1-1.7-3.6-1.7c-2.6,0-5.7,2.2-5.7,9.7c0,7,2.7,9.4,5.7,9.4c2.1,0,4.4-1.1,5.8-4.1l0.8,0.3c-0.8,2.6-3.1,5.5-7.3,5.5
		c-4.9,0-8.8-4-8.8-10.5c0-6.5,3.8-11,9.3-11C174.7,283.6,176.4,284.1,177.6,284.9z"/>
	<path fill="#FFFFFF" d="M188.6,288.4c1.4-3.6,4.1-4.8,6.8-4.8c2,0,3.3,0.6,4.2,1.5c1,1.1,1.4,2.5,1.4,5.2V301c0,2.2,0.8,2.9,3,2.9
		v0.8c-0.9,0-3-0.2-4.8-0.2c-1.7,0-3.6,0.1-4.4,0.2v-0.8c1.9,0,2.6-0.6,2.6-2.9v-11.5c0-2.5-0.4-4.6-3.2-4.6c-3.3,0-5.6,3-5.6,7.2
		v8.9c0,2.2,0.7,2.9,2.6,2.9v0.8c-0.8,0-2.7-0.2-4.4-0.2c-1.7,0-3.9,0.1-4.8,0.2v-0.8c2.2,0,3-0.6,3-2.9v-22.6c0-2.4-0.7-3.5-3-3.5
		V274c0.8,0.1,1.7,0.1,2.5,0.1c1.5,0,3-0.2,4.1-0.6V288.4z"/>
	<path fill="#FFFFFF" d="M212.3,301c0,2.2,0.8,2.9,3,2.9v0.8c-0.9,0-3-0.2-4.8-0.2c-1.8,0-3.9,0.1-4.8,0.2v-0.8c2.2,0,3-0.6,3-2.9
		v-12.4c0-2.4-0.7-3.5-3-3.5v-0.8c0.8,0.1,1.7,0.1,2.5,0.1c1.5,0,3-0.2,4.1-0.6V301z M212.8,276.8c0,1.4-1.2,2.5-2.5,2.5
		c-1.4,0-2.5-1.2-2.5-2.5c0-1.4,1.2-2.5,2.5-2.5C211.7,274.3,212.8,275.4,212.8,276.8z"/>
	<path fill="#FFFFFF" d="M234.9,285.1c1,1.1,1.4,2.5,1.4,5.2V301c0,2.2,0.8,2.9,3,2.9v0.8c-0.9,0-3-0.2-4.8-0.2
		c-1.7,0-3.6,0.1-4.4,0.2v-0.8c1.9,0,2.6-0.6,2.6-2.9v-11.5c0-2.5-0.4-4.6-3.2-4.6c-3.3,0-5.6,3.2-5.6,7.2v8.8
		c0,2.2,0.7,2.9,2.6,2.9v0.8c-0.8,0-2.7-0.2-4.4-0.2c-1.7,0-3.9,0.1-4.8,0.2v-0.8c2.2,0,3-0.6,3-2.9v-12.4c0-2.4-0.7-3.5-3-3.5v-0.8
		c0.8,0.1,1.7,0.1,2.5,0.1c1.5,0,3-0.2,4.1-0.6v4.7c1.4-3.6,4.1-4.8,6.8-4.8C232.8,283.6,234,284.2,234.9,285.1z"/>
	<path fill="#FFFFFF" d="M258.3,299.9c-0.9,2.7-3.5,5.3-7.4,5.3c-5.8,0-9.1-4.2-9.1-10.3c0-7,3.5-11.3,9-11.3c4.6,0,7.4,2.7,7.4,8.7
		h-12.4c-0.1,0.8-0.1,1.7-0.1,2.5c0,5.4,3,8.6,6.1,8.6c2.4,0,4.4-1,5.8-4L258.3,299.9z M245.7,291.6h8.7c0.1-3.9-1.1-7.2-3.8-7.2
		C248.2,284.4,246.1,286.6,245.7,291.6z"/>
	<path fill="#FFFFFF" d="M272.6,285.1c0.9,0.7,1.4,0.3,1.6-1.4h0.9c-0.1,1.5-0.2,3.3-0.2,6.8H274c-0.5-2.9-1.8-6-5.4-6
		c-1.9,0-3.3,1.1-3.3,3.1c0,2.4,2.4,3.5,5.1,5.2c3,1.9,5.4,3.7,5.4,6.9c0,3.7-3.2,5.6-6.8,5.6c-1.2,0-2.2-0.2-3.1-0.6
		c-0.6-0.3-1.1-0.6-1.6-1.1c-0.5-0.4-1,0-1.2,1.4h-0.9c0.1-1.7,0.2-3.9,0.2-7.9h0.9c0.5,4.4,1.5,7.4,5.5,7.4c1.6,0,3.5-1,3.5-3.8
		c0-2.3-1.9-3.6-4.5-5.2c-2.9-1.8-5.5-3.4-5.5-6.7c0-3.5,2.7-5.1,5.9-5.1C270.4,283.6,271.9,284.5,272.6,285.1z"/>
	<path fill="#FFFFFF" d="M309.9,281.6c0,1.3,0,2.4,0.1,3.3h-0.9c-0.6-5.5-1.2-7.4-6.1-7.4h-2.1V300c0,3.2,0.7,3.7,4,3.8v0.8
		c-1.4-0.1-3.7-0.1-5.8-0.1c-2.4,0-4.6,0-5.9,0.1v-0.8c3.3-0.1,4-0.6,4-3.8v-22.6H295c-5,0-5.6,1.9-6.1,7.4H288
		c0.1-0.8,0.1-2,0.1-3.3c0-1-0.1-3.1-0.3-5.1c3.3,0.1,7.9,0.1,11.2,0.1c3.3,0,7.9,0,11.2-0.1C310,278.6,309.9,280.6,309.9,281.6z"/>
	<path fill="#FFFFFF" d="M318.5,288.4c1.4-3.6,4-4.8,6.8-4.8c2,0,3.3,0.6,4.2,1.5c1,1.1,1.4,2.5,1.4,5.2V301c0,2.2,0.8,2.9,3,2.9
		v0.8c-0.9,0-3-0.2-4.8-0.2c-1.7,0-3.6,0.1-4.4,0.2v-0.8c1.9,0,2.6-0.6,2.6-2.9v-11.5c0-2.5-0.4-4.6-3.2-4.6c-3.3,0-5.6,3-5.6,7.2
		v8.9c0,2.2,0.7,2.9,2.6,2.9v0.8c-0.8,0-2.7-0.2-4.4-0.2c-1.7,0-3.9,0.1-4.8,0.2v-0.8c2.2,0,3-0.6,3-2.9v-22.6c0-2.4-0.7-3.5-3-3.5
		V274c0.8,0.1,1.7,0.1,2.5,0.1c1.5,0,3-0.2,4.1-0.6V288.4z"/>
	<path fill="#FFFFFF" d="M342.2,301c0,2.2,0.8,2.9,3,2.9v0.8c-0.9,0-3-0.2-4.8-0.2s-3.9,0.1-4.8,0.2v-0.8c2.2,0,3-0.6,3-2.9v-12.4
		c0-2.4-0.7-3.5-3-3.5v-0.8c0.8,0.1,1.7,0.1,2.5,0.1c1.5,0,3-0.2,4.1-0.6V301z M342.7,276.8c0,1.4-1.2,2.5-2.5,2.5s-2.5-1.2-2.5-2.5
		c0-1.4,1.2-2.5,2.5-2.5S342.7,275.4,342.7,276.8z"/>
	<path fill="#FFFFFF" d="M364.8,285.1c1,1.1,1.4,2.5,1.4,5.2V301c0,2.2,0.8,2.9,3,2.9v0.8c-0.9,0-3-0.2-4.8-0.2
		c-1.7,0-3.6,0.1-4.4,0.2v-0.8c1.9,0,2.6-0.6,2.6-2.9v-11.5c0-2.5-0.4-4.6-3.2-4.6c-3.3,0-5.6,3.2-5.6,7.2v8.8
		c0,2.2,0.7,2.9,2.6,2.9v0.8c-0.8,0-2.7-0.2-4.4-0.2c-1.7,0-3.9,0.1-4.8,0.2v-0.8c2.2,0,3-0.6,3-2.9v-12.4c0-2.4-0.7-3.5-3-3.5v-0.8
		c0.8,0.1,1.7,0.1,2.5,0.1c1.5,0,3-0.2,4.1-0.6v4.7c1.4-3.6,4.1-4.8,6.8-4.8C362.6,283.6,363.9,284.2,364.8,285.1z"/>
	<path fill="#FFFFFF" d="M391.4,303.8v0.8c-0.6,0-2-0.2-3.2-0.2c-1.7,0-3.6,0.1-4.4,0.2v-0.8c1.1,0,1.5-0.6,1-1.4l-4.6-6.7
		c-1-1.4-1.6-1.7-3-1.7v6.9c0,2.2,0.7,2.9,2.6,2.9v0.8c-0.8,0-2.7-0.2-4.4-0.2c-1.8,0-3.9,0.1-4.8,0.2v-0.8c2.2,0,3-0.6,3-2.9v-22.7
		c0-2.4-0.7-3.5-3-3.5v-0.8c0.8,0.1,1.7,0.1,2.5,0.1c1.5,0,3-0.2,4.1-0.6v19.7c1.6-0.2,2.5-0.7,3.4-1.6l2.9-3.1
		c2.5-2.6,0.9-3.5-1.7-3.5v-0.8c1.4,0.1,3.3,0.2,4.5,0.2c1.3,0,2.7-0.1,3.5-0.2v0.8c-1.3,0.1-2.5,0.7-3.6,1.9l-4.8,5.1l7.2,9.8
		C389.5,303,390.2,303.7,391.4,303.8z"/>
</g>
<circle fill="#FFFFFF" cx="249.8" cy="262.3" r="3.2"/>
<line fill="none" stroke="#FFFFFF" stroke-miterlimit="10" x1="70" y1="262.3" x2="429.6" y2="262.3"/>
</svg>
