<?xml version="1.0" encoding="utf-8"?>
<!-- Generator: Adobe Illustrator 18.0.0, SVG Export Plug-In . SVG Version: 6.00 Build 0)  -->
<!DOCTYPE svg PUBLIC "-//W3C//DTD SVG 1.1//EN" "http://www.w3.org/Graphics/SVG/1.1/DTD/svg11.dtd">
<svg version="1.1" id="Layer_1" xmlns="http://www.w3.org/2000/svg" xmlns:xlink="http://www.w3.org/1999/xlink" x="0px" y="0px"
	 viewBox="0 160 500 180" enable-background="new 0 160 500 180" xml:space="preserve">
<g>
	<g>
		<path fill="#F3BA0C" d="M28.4,308.2V191.6h8.1l37.1,90.5v-90.5h9.4v116.6h-7.7l-37.4-91.6v91.6H28.4z"/>
		<path fill="#F3BA0C" d="M118.2,308.2V191.6H129v116.6H118.2z"/>
		<path fill="#F3BA0C" d="M164.1,308.2V191.6h11v61.5l31.2-61.5h10.6l-24.1,50.1l29.3,66.5H211l-26.5-60.8l-9.4,17.4v43.3H164.1z"/>
		<path fill="#F3BA0C" d="M274.3,309.7c-5.6,0-10.4-0.9-14.4-2.6c-4-1.7-7.1-4.2-9.3-7.5c-2.2-3.3-3.8-7.1-4.8-11.3
			c-1-4.2-1.5-9.1-1.5-14.6v-48.4c0-5.5,0.5-10.3,1.5-14.4c1-4.1,2.6-7.8,4.9-10.9c2.3-3.2,5.4-5.6,9.3-7.2
			c3.9-1.6,8.7-2.5,14.2-2.5c5.5,0,10.3,0.8,14.2,2.5c3.9,1.6,7,4.1,9.3,7.2c2.3,3.2,3.9,6.8,4.9,11c1,4.1,1.5,8.9,1.5,14.3v48.5
			c0,4.4-0.3,8.3-0.9,11.8c-0.6,3.5-1.6,6.8-3,9.8c-1.4,3-3.3,5.6-5.5,7.6c-2.3,2-5.1,3.6-8.6,4.8S278.8,309.7,274.3,309.7z
			 M264.8,299.1c2.5,1.1,5.7,1.7,9.4,1.7c3.7,0,6.9-0.6,9.4-1.7c2.5-1.1,4.5-2.9,5.8-5.2c1.3-2.3,2.3-4.9,2.8-7.7
			c0.5-2.8,0.8-6.2,0.8-10.1v-52.8c0-3.9-0.3-7.3-0.8-10.1c-0.5-2.8-1.5-5.3-2.8-7.6c-1.3-2.3-3.3-3.9-5.8-5
			c-2.5-1.1-5.7-1.7-9.4-1.7c-3.8,0-6.9,0.6-9.4,1.7c-2.5,1.1-4.5,2.8-5.8,5c-1.3,2.2-2.3,4.8-2.8,7.6c-0.5,2.8-0.8,6.2-0.8,10.1
			v52.8c0,3.9,0.3,7.3,0.8,10.1c0.5,2.8,1.5,5.4,2.8,7.7C260.4,296.2,262.3,298,264.8,299.1z"/>
		<path fill="#F3BA0C" d="M335,308.2v-15.8h11.2v15.8H335z"/>
		<path fill="#F3BA0C" d="M371,308.2l24.6-116.6h11.5l24.8,116.6h-10.8l-5.8-31.2h-27.9l-5.9,31.2H371z M389,269h24.8l-12.4-62.9
			L389,269z"/>
		<path fill="#F3BA0C" d="M460.8,308.2V191.6h10.8v116.6H460.8z"/>
	</g>
	<g>
		<path fill="#FFFFFF" d="M28.4,308.2V191.6h8.1l37.1,90.5v-90.5h9.4v116.6h-7.7l-37.4-91.6v91.6H28.4z"/>
		<path fill="#FFFFFF" d="M118.2,308.2V191.6H129v116.6H118.2z"/>
		<path fill="#FFFFFF" d="M164.1,308.2V191.6h11v61.5l31.2-61.5h10.6l-24.1,50.1l29.3,66.5H211l-26.5-60.8l-9.4,17.4v43.3H164.1z"/>
		<path fill="#FFFFFF" d="M274.3,309.7c-5.6,0-10.4-0.9-14.4-2.6c-4-1.7-7.1-4.2-9.3-7.5c-2.2-3.3-3.8-7.1-4.8-11.3
			c-1-4.2-1.5-9.1-1.5-14.6v-48.4c0-5.5,0.5-10.3,1.5-14.4c1-4.1,2.6-7.8,4.9-10.9c2.3-3.2,5.4-5.6,9.3-7.2
			c3.9-1.6,8.7-2.5,14.2-2.5c5.5,0,10.3,0.8,14.2,2.5c3.9,1.6,7,4.1,9.3,7.2c2.3,3.2,3.9,6.8,4.9,11c1,4.1,1.5,8.9,1.5,14.3v48.5
			c0,4.4-0.3,8.3-0.9,11.8c-0.6,3.5-1.6,6.8-3,9.8c-1.4,3-3.3,5.6-5.5,7.6c-2.3,2-5.1,3.6-8.6,4.8S278.8,309.7,274.3,309.7z
			 M264.8,299.1c2.5,1.1,5.7,1.7,9.4,1.7c3.7,0,6.9-0.6,9.4-1.7c2.5-1.1,4.5-2.9,5.8-5.2c1.3-2.3,2.3-4.9,2.8-7.7
			c0.5-2.8,0.8-6.2,0.8-10.1v-52.8c0-3.9-0.3-7.3-0.8-10.1c-0.5-2.8-1.5-5.3-2.8-7.6c-1.3-2.3-3.3-3.9-5.8-5
			c-2.5-1.1-5.7-1.7-9.4-1.7c-3.8,0-6.9,0.6-9.4,1.7c-2.5,1.1-4.5,2.8-5.8,5c-1.3,2.2-2.3,4.8-2.8,7.6c-0.5,2.8-0.8,6.2-0.8,10.1
			v52.8c0,3.9,0.3,7.3,0.8,10.1c0.5,2.8,1.5,5.4,2.8,7.7C260.4,296.2,262.3,298,264.8,299.1z"/>
		<path fill="#FFFFFF" d="M335,308.2v-15.8h11.2v15.8H335z"/>
		<path fill="#FFFFFF" d="M371,308.2l24.6-116.6h11.5l24.8,116.6h-10.8l-5.8-31.2h-27.9l-5.9,31.2H371z M389,269h24.8l-12.4-62.9
			L389,269z"/>
		<path fill="#FFFFFF" d="M460.8,308.2V191.6h10.8v116.6H460.8z"/>
	</g>
</g>
</svg>
